<svg width="159" height="55" viewBox="0 0 159 55" fill="none" xmlns="http://www.w3.org/2000/svg">
<path d="M2.22958 54.0663L0.700386 24.8876L8.40953 24.4836C10.0232 24.399 11.3186 24.6913 12.2957 25.3605C13.2839 26.0291 14.0172 27.0159 14.4956 28.3207C14.9741 29.6256 15.2614 31.1954 15.3576 33.0301C15.4502 34.7985 15.3597 36.3493 15.086 37.6826C14.8117 39.0047 14.2513 40.0482 13.4048 40.8129C12.5693 41.5771 11.3447 42.0015 9.73102 42.086L7.36025 42.2103L7.96585 53.7657L2.22958 54.0663ZM7.08569 36.9714L7.41727 36.954C8.50042 36.8972 9.14764 36.5585 9.35894 35.9379C9.57024 35.3173 9.6449 34.4156 9.58292 33.233C9.52499 32.1278 9.35881 31.2831 9.08438 30.699C8.82042 30.1033 8.24634 29.8286 7.36213 29.8749L6.71556 29.9088L7.08569 36.9714ZM17.2593 53.2787L15.7301 24.1L21.5658 23.7941L22.8343 47.9992L28.8359 47.6847L29.0965 52.6583L17.2593 53.2787ZM28.94 52.6665L30.2292 23.3401L40.1268 22.8214L44.4246 51.855L38.9039 52.1443L38.2427 47.4577L34.728 47.6419L34.61 52.3694L28.94 52.6665ZM34.8983 42.9615L37.5509 42.8225L35.4967 28.0513L35.2314 28.0652L34.8983 42.9615ZM45.1965 51.8145L43.6674 22.6358L49.6689 22.3213L53.0871 36.1565L52.3547 22.1805L57.9915 21.8851L59.5206 51.0638L53.8175 51.3627L50.1351 36.9263L50.8997 51.5156L45.1965 51.8145ZM60.8231 50.9956L59.2939 21.8169L64.9307 21.5215L66.4599 50.7002L60.8231 50.9956ZM67.7623 50.6319L66.2331 21.4532L77.9046 20.8415L78.2026 26.5281L72.4 26.8322L72.6433 31.4742L78.1475 31.1858L78.442 36.806L72.9379 37.0944L73.6312 50.3243L67.7623 50.6319ZM80.0399 49.9885L78.5107 20.8098L84.1475 20.5144L85.6767 49.6931L80.0399 49.9885ZM93.7903 49.5338C91.6793 49.6445 89.9428 49.076 88.5807 47.8286C87.2297 46.5805 86.4922 44.7738 86.3682 42.4086L85.6627 28.9466C85.5144 26.1172 85.959 23.9216 86.9966 22.36C88.0451 20.7977 89.835 19.9503 92.366 19.8176C93.7476 19.7452 94.9877 19.9352 96.0864 20.3874C97.1962 20.839 98.0873 21.5571 98.7595 22.5415C99.4311 23.5148 99.8072 24.7696 99.8877 26.3059L100.152 31.3459L94.3493 31.65L94.1234 27.3395C94.0776 26.4663 93.9364 25.8864 93.6997 25.5995C93.4624 25.3016 93.1117 25.1649 92.6475 25.1892C92.1059 25.2176 91.7516 25.4356 91.5846 25.8434C91.417 26.2401 91.3502 26.7644 91.3844 27.4165L92.1499 42.0225C92.1922 42.8293 92.338 43.3924 92.5875 43.7118C92.8481 44.0307 93.1994 44.1785 93.6415 44.1553C94.1388 44.1293 94.4763 43.9066 94.6538 43.4872C94.8424 43.0672 94.9195 42.5312 94.8854 41.8791L94.6099 36.6236L100.479 36.3161L100.768 41.8368C100.903 44.401 100.354 46.2972 99.1213 47.5255C97.8884 48.7428 96.1114 49.4122 93.7903 49.5338ZM101.279 48.8754L102.569 19.5489L112.466 19.0302L116.764 48.0638L111.243 48.3532L110.582 43.6665L107.067 43.8507L106.949 48.5782L101.279 48.8754ZM107.238 39.1703L109.89 39.0313L107.836 24.2602L107.571 24.2741L107.238 39.1703ZM119.608 47.9148L118.373 24.3397L114.908 24.5213L114.614 18.9177L127.38 18.2486L127.673 23.8523L124.208 24.0339L125.444 47.6089L119.608 47.9148ZM129.515 47.3956L127.986 18.2169L139.657 17.6052L139.953 23.242L134.216 23.5426L134.515 29.2292L140.019 28.9407L140.306 34.4283L134.802 34.7167L135.152 41.398L141.27 41.0774L141.568 46.7639L129.515 47.3956Z" fill="white"/>
<rect x="129.111" y="0.20166" width="30.2721" height="17.573" rx="8.78651" transform="rotate(15 129.111 0.20166)" fill="#E1FFB8"/>
<path d="M137.186 17.2631L138.855 7.08671L140.793 7.54903L139.123 17.7254L137.186 17.2631ZM139.298 17.767L141.936 7.82174L145.339 8.63351L144.621 19.037L142.723 18.5842L142.85 16.9081L141.642 16.6198L141.247 18.232L139.298 17.767ZM142.051 15.0291L142.963 15.2466L143.373 9.967L143.282 9.94525L142.051 15.0291Z" fill="#2F4858"/>
</svg>
