<svg width="36" height="12" viewBox="0 0 36 12" fill="none" xmlns="http://www.w3.org/2000/svg">
<path d="M30 9.64421L33.708 12L32.724 7.56L36 4.57263L31.686 4.18737L30 0L28.314 4.18737L24 4.57263L27.276 7.56L26.292 12L30 9.64421Z" fill="#2F4858"/>
<path d="M6 9.64421L9.708 12L8.724 7.56L12 4.57263L7.686 4.18737L6 0L4.314 4.18737L0 4.57263L3.276 7.56L2.292 12L6 9.64421Z" fill="#2F4858"/>
<path d="M18 9.64421L21.708 12L20.724 7.56L24 4.57263L19.686 4.18737L18 0L16.314 4.18737L12 4.57263L15.276 7.56L14.292 12L18 9.64421Z" fill="#2F4858"/>
</svg>
